<?xml version="1.0" encoding="UTF-8"?>
<!-- Generated by Pixelmator Pro 3.5.7 -->
<svg width="500" height="500" viewBox="0 0 500 500" xmlns="http://www.w3.org/2000/svg">
    <g id="Untitled">
        <g id="Group">
            <g id="g1">
                <clipPath id="clipPath1">
                    <path d="M 0 0 L 500 0 L 500 500 L 0 500 L 0 0 Z"/>
                </clipPath>
                <g id="g2" clip-path="url(#clipPath1)">
                    <path id="path1" fill="#ffcd85" stroke="none" d="M 463 251 C 463 368.084015 368.084015 463 251 463 C 133.916 463 39 368.084015 39 251 C 39 133.916016 133.916 39 251 39 C 368.084015 39 463 133.916016 463 251"/>
                    <path id="path2" fill="#ffcd85" stroke="none" d="M 311.768005 249 C 311.768005 200.398987 265.653015 161 208.768005 161 C 151.882004 161 105.767998 200.398987 105.767998 249 C 105.767998 290.562988 139.494003 325.390015 184.839005 334.606995 L 184.839005 360.125 L 226.623993 336 L 226.177002 335.742004 C 274.770996 328.673004 311.768005 292.529999 311.768005 249"/>
                    <path id="path3" fill="#ffcd85" stroke="none" d="M 404.231995 249 C 404.231995 205.369995 362.834991 170 311.766998 170 C 299.651001 170 288.082001 171.994019 277.477997 175.614014 C 302.644989 192.835999 318.766998 219.307983 318.766998 249 C 318.766998 278.691986 302.644989 305.162994 277.477997 322.386993 C 287.654999 325.859985 298.726013 327.81601 310.311005 327.970001 L 310.259003 328 L 339.868011 345.093994 L 339.868011 324.279999 C 377.194 314.118011 404.231995 284.259003 404.231995 249"/>
                    <path id="path4" fill="#ffffff" stroke="none" d="M 303.768005 251 C 303.768005 202.398987 257.653015 163 200.768005 163 C 143.882004 163 97.767601 202.398987 97.767601 251 C 97.767601 292.562988 131.494995 327.390015 176.839005 336.606995 L 176.839005 362.125 L 218.623993 338 L 218.177002 337.742004 C 266.770996 330.673004 303.768005 294.529999 303.768005 251"/>
                    <path id="path5" fill="#ffffff" stroke="none" d="M 396.231995 251 C 396.231995 207.369995 354.834991 172 303.766998 172 C 291.651001 172 280.082001 173.994019 269.477997 177.614014 C 294.644989 194.835999 310.766998 221.307983 310.766998 251 C 310.766998 280.691986 294.644989 307.162994 269.477997 324.386993 C 279.654999 327.859985 290.726013 329.81601 302.311005 329.970001 L 302.259003 330 L 331.868011 347.093994 L 331.868011 326.279999 C 369.194 316.118011 396.231995 286.259003 396.231995 251"/>
                    <path id="path6" fill="#ffcd85" stroke="none" d="M 164.766998 280.75 C 164.766998 286.687012 159.953995 291.5 154.016998 291.5 C 148.080002 291.5 143.266998 286.687012 143.266998 280.75 C 143.266998 274.812988 148.080002 270 154.016998 270 C 159.953995 270 164.766998 274.812988 164.766998 280.75"/>
                    <path id="path7" fill="#ffffff" stroke="none" d="M 161.835999 279.692993 C 161.391998 279.692993 160.987 279.395996 160.869003 278.946991 C 160.255005 276.604004 158.436005 274.703003 156.121002 273.984009 C 155.593002 273.820007 155.298996 273.259003 155.462006 272.731995 C 155.626999 272.20401 156.188995 271.911987 156.714005 272.074005 C 159.682999 272.996002 162.016006 275.434998 162.804001 278.438995 C 162.944 278.972992 162.625 279.519989 162.089996 279.661011 C 162.005005 279.682007 161.919998 279.692993 161.835999 279.692993"/>
                    <path id="path8" fill="#ffcd85" stroke="none" d="M 211.184006 280.75 C 211.184006 286.687012 206.371002 291.5 200.434006 291.5 C 194.496994 291.5 189.684006 286.687012 189.684006 280.75 C 189.684006 274.812988 194.496994 270 200.434006 270 C 206.371002 270 211.184006 274.812988 211.184006 280.75"/>
                    <path id="path9" fill="#ffffff" stroke="none" d="M 208.251999 279.692993 C 207.807999 279.692993 207.403 279.395996 207.285004 278.946991 C 206.671005 276.604004 204.852005 274.703003 202.537003 273.984009 C 202.009003 273.820007 201.714996 273.259003 201.878006 272.731995 C 202.042999 272.20401 202.604996 271.911987 203.130005 272.074005 C 206.098999 272.996002 208.432007 275.434998 209.220001 278.438995 C 209.360001 278.972992 209.041 279.519989 208.505997 279.661011 C 208.421005 279.682007 208.335999 279.692993 208.251999 279.692993"/>
                    <path id="path10" fill="#ffcd85" stroke="none" d="M 257.601013 280.75 C 257.601013 286.687012 252.787994 291.5 246.850998 291.5 C 240.914001 291.5 236.100998 286.687012 236.100998 280.75 C 236.100998 274.812988 240.914001 270 246.850998 270 C 252.787994 270 257.601013 274.812988 257.601013 280.75"/>
                    <path id="path11" fill="#ffffff" stroke="none" d="M 254.669006 279.692993 C 254.225998 279.692993 253.820007 279.395996 253.701996 278.946991 C 253.087997 276.604004 251.268997 274.703003 248.955002 273.984009 C 248.427002 273.820007 248.132004 273.259003 248.296005 272.731995 C 248.460007 272.20401 249.022995 271.911987 249.546997 272.074005 C 252.516006 272.996002 254.850006 275.434998 255.636993 278.438995 C 255.776993 278.972992 255.457993 279.519989 254.923004 279.661011 C 254.837997 279.682007 254.753006 279.692993 254.669006 279.692993"/>
                </g>
            </g>
        </g>
    </g>
</svg>
