<?xml version="1.0" encoding="UTF-8"?>
<!-- Generated by Pixelmator Pro 3.5.7 -->
<svg width="2166" height="2166" viewBox="0 0 2166 2166" xmlns="http://www.w3.org/2000/svg">
    <g id="Layer-1">
        <g id="Group">
            <g id="g1">
                <path id="Path" fill="#ffbe30" stroke="none" d="M 1468.106201 1091.931274 C 1479.917969 1068.227539 1486.597046 1041.517578 1486.597046 1013.234619 C 1486.597046 915.626709 1407.470459 836.499634 1309.862183 836.499634 C 1281.404663 836.499634 1254.54126 843.265381 1230.728271 855.2146 C 1188.650391 758.372559 1092.192993 690.623413 979.87207 690.623413 C 828.859131 690.623413 706.438782 813.043335 706.438782 964.056274 C 706.438782 1010.76416 718.175415 1054.72168 738.821655 1093.182495 C 663.26001 1110.29541 606.380859 1178.155762 606.380859 1258.699219 L 606.380859 1258.699585 C 606.380859 1352.046753 682.755859 1428.420776 776.102539 1428.420776 L 1436.851196 1428.420776 C 1530.197876 1428.420776 1606.572998 1352.046753 1606.572998 1258.699585 L 1606.572998 1258.699219 C 1606.572998 1176.027466 1546.651733 1106.714111 1468.106201 1091.931274 Z"/>
            </g>
            <g id="g2">
                <path id="path1" fill="#333333" stroke="none" d="M 1407.39624 1474.709961 L 746.645874 1474.709961 C 643.780823 1474.709961 560.09375 1391.023438 560.09375 1288.153809 C 560.09375 1208.905029 611.697083 1137.916138 685.422913 1112.039551 C 668.841675 1074.938354 660.150391 1034.362549 660.150391 993.511719 C 660.150391 833.45874 790.363281 703.247925 950.41626 703.247925 C 1060.37207 703.247925 1160.276611 765.245361 1209.481689 862.564941 C 1232.025757 853.637573 1255.810791 849.123291 1280.405029 849.123291 C 1387.137085 849.123291 1473.97168 935.957886 1473.97168 1042.69043 C 1473.97168 1065.909912 1469.94873 1088.412842 1461.989258 1109.828735 C 1539.56543 1133.57251 1593.948364 1205.539551 1593.948364 1288.153809 C 1593.948364 1391.023438 1510.261719 1474.709961 1407.39624 1474.709961 Z M 950.41626 736.911621 C 808.924988 736.911621 693.814148 852.022461 693.814148 993.511719 C 693.814148 1035.751709 704.31958 1077.650513 724.196716 1114.677979 C 726.682922 1119.309082 726.861633 1124.836182 724.681641 1129.619629 C 722.501709 1134.402466 718.211243 1137.891602 713.084961 1139.054688 C 643.940857 1154.714966 593.757507 1217.419556 593.757507 1288.153809 C 593.757507 1372.457153 662.342529 1441.046265 746.645874 1441.046265 L 1407.39624 1441.046265 C 1491.699585 1441.046265 1560.284546 1372.457153 1560.284546 1288.153809 C 1560.284546 1214.71167 1507.820435 1151.534546 1435.537109 1137.928223 C 1430.355469 1136.95459 1425.929688 1133.605469 1423.578735 1128.879517 C 1421.232422 1124.157837 1421.232422 1118.606201 1423.587036 1113.884644 C 1434.682495 1091.609985 1440.307861 1067.656738 1440.307861 1042.69043 C 1440.307861 954.52002 1368.575439 882.787109 1280.405029 882.787109 C 1255.288696 882.787109 1231.203735 888.48291 1208.820435 899.713745 C 1204.682007 901.792969 1199.882568 902.070435 1195.530396 900.492432 C 1191.182983 898.91626 1187.67749 895.618774 1185.83252 891.375854 C 1145.063721 797.542847 1052.656738 736.911621 950.41626 736.911621 Z"/>
            </g>
            <g id="g3">
                <path id="path2" fill="#ffffff" stroke="none" d="M 1200.493774 1146.849609 L 1102.268677 976.719116 L 1004.044128 1146.849609 L 1060.398315 1146.849609 L 1060.398315 1323.352051 L 1144.139648 1323.352051 L 1144.139648 1146.849609 L 1200.493774 1146.849609 Z"/>
            </g>
            <g id="g4">
                <path id="path3" fill="#333333" stroke="none" d="M 1118.891235 1344.390381 L 1035.150879 1344.390381 C 1025.855469 1344.390381 1018.319214 1336.85376 1018.319214 1327.55835 L 1018.319214 1167.889526 L 978.79541 1167.889526 C 972.78125 1167.889526 967.225403 1164.68042 964.219604 1159.473633 C 961.21167 1154.26709 961.21167 1147.848267 964.219604 1142.64209 L 1062.445435 972.510864 C 1065.451294 967.302124 1071.00708 964.094971 1077.02124 964.094971 C 1083.032837 964.094971 1088.592896 967.302124 1091.597168 972.510864 L 1189.822876 1142.64209 C 1192.830811 1147.848267 1192.830811 1154.26709 1189.822876 1159.473633 C 1186.818726 1164.68042 1181.258789 1167.889526 1175.246704 1167.889526 L 1135.723389 1167.889526 L 1135.723389 1327.55835 C 1135.723389 1336.85376 1128.186646 1344.390381 1118.891235 1344.390381 Z M 1051.98291 1310.726685 L 1102.05957 1310.726685 L 1102.05957 1151.057983 C 1102.05957 1141.762573 1109.595825 1134.22583 1118.891235 1134.22583 L 1146.091187 1134.22583 L 1077.02124 1014.590454 L 1007.949219 1134.22583 L 1035.150879 1134.22583 C 1044.446289 1134.22583 1051.98291 1141.762573 1051.98291 1151.057983 L 1051.98291 1310.726685 Z"/>
            </g>
        </g>
    </g>
</svg>
