<?xml version="1.0" encoding="UTF-8" standalone="no"?>
<!DOCTYPE svg PUBLIC "-//W3C//DTD SVG 1.1//EN" "http://www.w3.org/Graphics/SVG/1.1/DTD/svg11.dtd">
<!-- Created with Vectornator (http://vectornator.io/) -->
<svg height="1024" stroke-miterlimit="10" style="fill-rule:nonzero;clip-rule:evenodd;stroke-linecap:round;stroke-linejoin:round;" version="1.1" viewBox="0 0 1024 1024" width="1024" xml:space="preserve" xmlns="http://www.w3.org/2000/svg" xmlns:vectornator="http://vectornator.io" xmlns:xlink="http://www.w3.org/1999/xlink">
<defs/>
<clipPath id="ArtboardFrame">
<rect height="1024" width="1024" x="0" y="0"/>
</clipPath>
<g clip-path="url(#ArtboardFrame)" id="Layer-1" vectornator:layerName="Layer 1">
<path d="M46.1581 1065.82C46.1581 917.049 258.54 796.446 520.525 796.446C782.511 796.446 994.893 917.049 994.893 1065.82C994.893 1214.59 782.511 1335.2 520.525 1335.2C258.54 1335.2 46.1581 1214.59 46.1581 1065.82Z" fill="#9e6240" fill-rule="nonzero" opacity="1" stroke="none" vectornator:layerName="Oval 2"/>
<path d="M743.655 472.237C743.655 394.679 797.988 331.807 865.011 331.807C932.034 331.807 986.367 394.679 986.367 472.237C986.367 549.794 932.034 612.666 865.011 612.666C797.988 612.666 743.655 549.794 743.655 472.237Z" fill="#cccccc" fill-rule="nonzero" opacity="1" stroke="none" vectornator:layerName="Oval 5"/>
<path d="M173.504 512C173.504 325.054 325.054 173.504 512 173.504C698.946 173.504 850.496 325.054 850.496 512C850.496 698.946 698.946 850.496 512 850.496C325.054 850.496 173.504 698.946 173.504 512Z" fill="#e2d3bb" fill-rule="nonzero" opacity="1" stroke="none" vectornator:layerName="Oval 1"/>
<path d="M557.207 600.221C557.207 625.188 536.967 645.428 512 645.428C487.033 645.428 466.793 625.188 466.793 600.221" fill="none" opacity="1" stroke="#b0a492" stroke-linecap="butt" stroke-linejoin="round" stroke-width="10.03" vectornator:layerName="Oval 15"/>
<path d="M497.278 442.836C497.278 435.675 503.083 429.869 510.244 429.869C517.406 429.869 523.211 435.675 523.211 442.836" fill="none" opacity="1" stroke="#1d1d1d" stroke-linecap="butt" stroke-linejoin="round" stroke-width="10.03" vectornator:layerName="Oval 16"/>
<path d="M412.531 173.504C412.531 104.486 460.882 48.5366 520.525 48.5366C580.169 48.5366 628.519 104.486 628.519 173.504C628.519 242.521 580.169 298.471 520.525 298.471C460.882 298.471 412.531 242.521 412.531 173.504Z" fill="#cccccc" fill-rule="nonzero" opacity="1" stroke="none" vectornator:layerName="Oval 6"/>
<path d="M304.537 195.189C304.537 132.606 348.38 81.8723 402.463 81.8723C456.546 81.8723 500.389 132.606 500.389 195.189C500.389 257.772 456.546 308.505 402.463 308.505C348.38 308.505 304.537 257.772 304.537 195.189Z" fill="#cccccc" fill-rule="nonzero" opacity="1" stroke="none" vectornator:layerName="Oval 7"/>
<path d="M201.518 242.43C201.518 193.068 236.099 153.053 278.756 153.053C321.413 153.053 355.994 193.068 355.994 242.43C355.994 291.791 321.413 331.807 278.756 331.807C236.099 331.807 201.518 291.791 201.518 242.43Z" fill="#cccccc" fill-rule="nonzero" opacity="1" stroke="none" vectornator:layerName="Oval 9"/>
<path d="M696.02 242.43C696.02 193.068 730.601 153.053 773.258 153.053C815.916 153.053 850.496 193.068 850.496 242.43C850.496 291.791 815.916 331.807 773.258 331.807C730.601 331.807 696.02 291.791 696.02 242.43Z" fill="#cccccc" fill-rule="nonzero" opacity="1" stroke="none" vectornator:layerName="Oval 10"/>
<path d="M773.258 315.139C773.258 274.983 797.447 242.43 827.285 242.43C857.123 242.43 881.312 274.983 881.312 315.139C881.312 355.295 857.123 387.848 827.285 387.848C797.447 387.848 773.258 355.295 773.258 315.139Z" fill="#cccccc" fill-rule="nonzero" opacity="1" stroke="none" vectornator:layerName="Oval 11"/>
<path d="M147.491 331.807C147.491 291.651 171.68 259.098 201.518 259.098C231.356 259.098 255.545 291.651 255.545 331.807C255.545 371.963 231.356 404.516 201.518 404.516C171.68 404.516 147.491 371.963 147.491 331.807Z" fill="#cccccc" fill-rule="nonzero" opacity="1" stroke="none" vectornator:layerName="Oval 12"/>
<path d="M547.803 195.189C547.803 132.606 591.646 81.8723 645.729 81.8723C699.812 81.8723 743.655 132.606 743.655 195.189C743.655 257.772 699.812 308.505 645.729 308.505C591.646 308.505 547.803 257.772 547.803 195.189Z" fill="#cccccc" fill-rule="nonzero" opacity="1" stroke="none" vectornator:layerName="Oval 8"/>
<path d="M645.729 442.836C645.729 431.199 655.162 421.766 666.799 421.766C678.436 421.766 687.869 431.199 687.869 442.836C687.869 454.473 678.436 463.906 666.799 463.906C655.162 463.906 645.729 454.473 645.729 442.836Z" fill="#000000" fill-rule="nonzero" opacity="1" stroke="none" vectornator:layerName="Oval 3"/>
<path d="M340.653 442.836C340.653 431.199 350.086 421.766 361.723 421.766C373.36 421.766 382.793 431.199 382.793 442.836C382.793 454.473 373.36 463.906 361.723 463.906C350.086 463.906 340.653 454.473 340.653 442.836Z" fill="#000000" fill-rule="nonzero" opacity="1" stroke="none" vectornator:layerName="Oval 4"/>
<path d="M221.324 482.426C221.324 404.886 284.183 342.028 361.723 342.028C439.263 342.028 502.121 404.886 502.121 482.426C502.121 559.966 439.263 622.825 361.723 622.825C284.183 622.825 221.324 559.966 221.324 482.426Z" fill="none" opacity="1" stroke="#1d1d1d" stroke-linecap="butt" stroke-linejoin="round" stroke-width="8" vectornator:layerName="Oval 13"/>
<path d="M520.525 475.616C520.525 396.192 584.911 331.807 664.334 331.807C743.758 331.807 808.143 396.192 808.143 475.616C808.143 555.039 743.758 619.425 664.334 619.425C584.911 619.425 520.525 555.039 520.525 475.616Z" fill="none" opacity="1" stroke="#1d1d1d" stroke-linecap="butt" stroke-linejoin="round" stroke-width="8" vectornator:layerName="Oval 14"/>
<path d="M466.793 752.671C466.793 752.671 557.535 790.074 620.662 703.121" fill="none" opacity="1" stroke="#1d1d1d" stroke-linecap="round" stroke-linejoin="round" stroke-width="22.03" vectornator:layerName="Curve 2"/>
</g>
</svg>
