<?xml version="1.0" encoding="UTF-8" standalone="no"?>
<!DOCTYPE svg PUBLIC "-//W3C//DTD SVG 1.1//EN" "http://www.w3.org/Graphics/SVG/1.1/DTD/svg11.dtd">
<!-- Created with Vectornator (http://vectornator.io/) -->
<svg height="100%" stroke-miterlimit="10" style="fill-rule:nonzero;clip-rule:evenodd;stroke-linecap:round;stroke-linejoin:round;" version="1.1" viewBox="0 0 400 400" width="100%" xml:space="preserve" xmlns="http://www.w3.org/2000/svg" xmlns:vectornator="http://vectornator.io" xmlns:xlink="http://www.w3.org/1999/xlink">
<defs/>
<clipPath id="ArtboardFrame">
<rect height="400" width="400" x="0" y="0"/>
</clipPath>
<g clip-path="url(#ArtboardFrame)" id="Layer-1" vectornator:layerName="Layer 1">
<g opacity="1" vectornator:layerName="rect">
<clipPath clip-rule="evenodd" id="ClipPath">
<path d="M2.43652 44.0631L400 44.0631L400 44.0631L400 678.562L400 678.562L2.43652 678.562L2.43652 678.562L2.43652 44.0631L2.43652 44.0631Z"/>
</clipPath>
<g clip-path="url(#ClipPath)">
<path d="M166.62 301.569C112.472 335.261 17.1288 417.049 23.4281 543.432C29.5197 665.669 33.0544 678.201 33.0544 678.201L355.538 675.794C355.538 675.794 408.483 332.855 197.906 307.585C97.5512 295.543 166.62 301.569 166.62 301.569Z" fill="#d99e77" fill-rule="evenodd" opacity="1" stroke="none" vectornator:layerName="path"/>
<path d="M144.173 308.668C144.173 308.668 176.071 335.141 257.145 307.465C257.145 307.465 277.058 363.471 252.529 362.215C180.758 367.028 144.172 308.668 144.172 308.668L144.173 308.668Z" fill="#a77651" fill-rule="evenodd" opacity="1" stroke="none" vectornator:layerName="path"/>
<path d="M219.914 348.136L214.542 376.809L245.488 359.744L219.914 348.136Z" fill="#999999" fill-rule="evenodd" opacity="1" stroke="none" vectornator:layerName="path"/>
<path d="M181.734 345.609L187.106 374.282L156.16 357.217L181.734 345.609Z" fill="#999999" fill-rule="evenodd" opacity="1" stroke="none" vectornator:layerName="path"/>
<path d="M147.663 325.033C147.663 325.033 62.3246 358.534 43.7156 387.484C-10.4327 471.715 4.4701 687.226 4.4701 687.226C4.4701 687.226 39.8964 684.615 76.668 686.022L340.19 687.226L379.899 686.022C379.899 686.022 421.626 489 360.258 392.737C339.519 360.204 257.16 322.626 257.16 322.626C257.16 322.626 251.157 365.514 205.418 365.945C162.014 366.355 147.659 325.033 147.659 325.033L147.663 325.033Z" fill="#43a5f8" fill-rule="evenodd" opacity="1" stroke="none" vectornator:layerName="path"/>
<path d="M114.024 336.404C114.024 336.404 131.491 355.592 156.14 368.601C177.799 380.033 203.446 385.344 228.091 378.623C266.685 368.097 280.203 330.595 280.203 330.595L273.464 321.364C273.464 321.364 239.505 354.744 222.324 359.869C204.092 365.308 195.851 364.081 183.216 359.869C172.801 356.397 133.279 323.77 133.279 323.77L114.024 336.404Z" fill="#0b79d8" fill-rule="evenodd" opacity="1" stroke="none" vectornator:layerName="path"/>
<path d="M286.168 323.709C276.542 312.88 265.596 300.962 265.596 300.962L248.32 328.863C243.371 336.854 218.783 348.979 218.783 348.979C218.783 348.979 240.834 357.688 243.524 380.264C278.616 368.438 286.168 323.709 286.168 323.709Z" fill="#ececec" fill-rule="evenodd" opacity="1" stroke="none" vectornator:layerName="path"/>
<path d="M108.609 326.297C118.236 314.8 132.675 293.086 132.675 293.086L152.474 327.935C157.329 336.479 182.011 349.289 182.011 349.289C182.011 349.289 159.359 352.148 156.669 376.114C121.577 363.56 108.609 326.297 108.609 326.297L108.609 326.297Z" fill="#ececec" fill-rule="evenodd" opacity="1" stroke="none" vectornator:layerName="path"/>
<path d="M267.468 302.231C267.468 302.231 267.747 330.213 253.605 341.267L231.981 358.168L220.245 349.028C220.245 349.028 241.517 336.691 247.473 327.757C253.429 318.823 255.131 310.74 255.131 310.74L267.468 302.231Z" fill="#cccccc" fill-rule="evenodd" opacity="1" stroke="none" vectornator:layerName="path"/>
<path d="M183.13 73.7845C161.369 73.9276 131.467 82.7232 117.285 99.2686C97.3893 122.481 97.941 149.698 90.1238 164.199C80.2544 162.388 66.4718 163.091 62.8499 177.58C57.9878 197.029 62.7754 195.56 68.854 211.87C68.854 211.87 81.6637 224.904 88.6399 225.277C96.2934 263.561 109.177 312.841 171.607 320.331C257.559 330.645 298.814 296.265 302.249 224.067C302.806 212.371 303.726 217.963 304.742 209.179C306.595 209.927 308.645 210.362 310.913 210.362C327.93 210.362 327.93 198.207 332.792 173.897C335.916 158.277 311.356 160.122 300.274 161.714C299.297 151.25 291.495 111.102 279.197 100.171C258.892 82.1215 224.673 73.5101 183.132 73.7838L183.13 73.7845Z" fill="#d99e77" fill-rule="evenodd" opacity="1" stroke="none" vectornator:layerName="path"/>
<path d="M128.365 210.058C128.365 203.949 133.317 198.997 139.426 198.997C145.535 198.997 150.487 203.949 150.487 210.058C150.487 216.167 145.535 221.119 139.426 221.119C133.317 221.119 128.365 216.167 128.365 210.058Z" fill="#000000" fill-rule="evenodd" opacity="1" stroke="none" vectornator:layerName="circle"/>
<path d="M238.686 209.216C238.686 203.107 243.639 198.154 249.748 198.154C255.857 198.154 260.809 203.107 260.809 209.216C260.809 215.325 255.857 220.277 249.748 220.277C243.639 220.277 238.686 215.325 238.686 209.216Z" fill="#000000" fill-rule="evenodd" opacity="1" stroke="none" vectornator:layerName="circle"/>
<path d="M61.0792 440.465L41.8265 685.938L83.9419 685.938L79.1287 497.02L61.0792 440.465Z" fill="#2596f7" fill-rule="evenodd" opacity="1" stroke="none" vectornator:layerName="path"/>
<path d="M59.2743 431.441C90.8897 551.079 76.3021 686.558 76.3021 686.558L87.3701 687.744C87.3701 687.744 96.621 479.111 59.2743 431.442L59.2743 431.441Z" fill="#0976d3" fill-rule="evenodd" opacity="1" stroke="none" vectornator:layerName="path"/>
<path d="M126.093 302.652C126.093 302.652 133.317 332.406 147.863 342.921L167.081 356.815L184.231 349.479C184.231 349.479 157.15 332.006 151.194 323.072C145.238 314.138 146.088 314.138 146.088 314.138L126.093 302.652Z" fill="#cccccc" fill-rule="evenodd" opacity="1" stroke="none" vectornator:layerName="path"/>
<path d="M331.821 439.262L351.074 684.735L308.959 684.735L313.772 495.817L331.821 439.262Z" fill="#2596f7" fill-rule="evenodd" opacity="1" stroke="none" vectornator:layerName="path"/>
<path d="M331.454 436.254C299.839 551.957 314.426 682.984 314.426 682.984L303.358 684.132C303.358 684.132 294.107 482.357 331.454 436.252L331.454 436.254Z" fill="#0976d3" fill-rule="evenodd" opacity="1" stroke="none" vectornator:layerName="path"/>
<path d="M88.009 226.002C88.009 226.002 85.7484 165.518 84.5451 137.842C83.3418 110.166 86.5992 100.625 97.4288 82.5758C108.258 64.5264 138.693 47.5948 156.743 45.1882C174.792 42.7816 227.738 42.7816 244.584 50.0014C261.43 57.2212 284.292 70.4574 291.512 82.4904C298.732 94.5234 302.281 173.893 298.878 205.582C298.686 207.376 293.939 169.326 282.984 155.233C272.142 141.285 287.696 119.34 281.68 117.535C269.647 113.925 239.977 130.917 190.644 126.104C141.309 121.291 109.025 111.811 106.618 119.03C104.211 126.25 114.895 146.157 107.202 151.555C88.4226 164.731 88.0098 226.003 88.0098 226.003L88.009 226.002Z" fill="#000000" fill-rule="evenodd" opacity="1" stroke="none" vectornator:layerName="path"/>
<path d="M167.186 184.488L166.873 205.798C166.873 205.798 159.206 193.678 145.234 190.54C131.262 187.402 114.098 195.777 114.098 195.777C104.585 193.162 131.773 171.351 147.773 177.358C163.773 183.366 167.186 184.487 167.186 184.487L167.186 184.488Z" fill="#000000" fill-rule="evenodd" opacity="1" stroke="none" vectornator:layerName="path"/>
<path d="M224.319 175.945L224.632 197.254C224.632 197.254 232.299 185.135 246.27 181.996C260.242 178.859 277.406 187.234 277.406 187.234C286.92 184.619 259.731 162.808 243.731 168.815C227.732 174.822 224.319 175.944 224.319 175.944L224.319 175.945Z" fill="#000000" fill-rule="evenodd" opacity="1" stroke="none" vectornator:layerName="path"/>
<path d="M155.009 259.875C155.009 259.875 153.965 260.352 172.647 258.861C191.33 257.369 192.56 263.876 198.378 264.344C204.196 264.812 210.706 262.049 217.379 263.168C224.051 264.286 236.893 265.883 236.893 265.883C213.485 278.751 182.153 275.321 155.009 259.875Z" fill="#a76e4a" fill-rule="evenodd" opacity="1" stroke="none" vectornator:layerName="path"/>
<path d="M153.511 259.634C153.511 259.634 196.537 282.35 235.612 264.786C235.612 264.786 239.269 266.944 234.907 253.407C238.972 255.033 246.686 267.468 246.686 267.468L239.672 264.993C239.672 264.993 200.972 305.47 153.51 259.634L153.511 259.634Z" fill="#000000" fill-rule="evenodd" opacity="1" stroke="none" vectornator:layerName="path"/>
</g>
</g>
</g>
</svg>
