<?xml version="1.0" encoding="UTF-8" standalone="no"?>
<!DOCTYPE svg PUBLIC "-//W3C//DTD SVG 1.1//EN" "http://www.w3.org/Graphics/SVG/1.1/DTD/svg11.dtd">
<!-- Created with Vectornator (http://vectornator.io/) -->
<svg height="100%" stroke-miterlimit="10" style="fill-rule:nonzero;clip-rule:evenodd;stroke-linecap:round;stroke-linejoin:round;" version="1.1" viewBox="0 0 400 400" width="100%" xml:space="preserve" xmlns="http://www.w3.org/2000/svg" xmlns:vectornator="http://vectornator.io" xmlns:xlink="http://www.w3.org/1999/xlink">
<defs/>
<clipPath id="ArtboardFrame">
<rect height="400" width="400" x="0" y="0"/>
</clipPath>
<g clip-path="url(#ArtboardFrame)" id="Layer-1" vectornator:layerName="Layer 1">
<g opacity="1" vectornator:layerName="rect">
<clipPath clip-rule="evenodd" id="ClipPath">
<path d="M-4.2902 25.0715L404.29 25.0715L404.29 25.0715L404.29 704.139L404.29 704.139L-4.2902 704.139L-4.2902 704.139L-4.2902 25.0715L-4.2902 25.0715Z"/>
</clipPath>
<g clip-path="url(#ClipPath)">
<path d="M182.251 309.615C124.299 345.674 22.2582 433.208 28.9999 568.467C35.5195 699.291 39.3025 712.703 39.3025 712.703L384.438 710.128C384.438 710.128 441.102 343.099 215.734 316.055C108.33 303.166 182.251 309.615 182.251 309.615Z" fill="#f4ccb2" fill-rule="evenodd" opacity="1" stroke="none" vectornator:layerName="path"/>
<path d="M166.797 321.206C166.797 321.206 197.704 349.538 276.261 319.918C276.261 319.918 289.727 374.064 265.959 372.719C196.417 377.87 166.797 321.206 166.797 321.206Z" fill="#d9a37b" fill-rule="evenodd" opacity="1" stroke="none" vectornator:layerName="path"/>
<path d="M199.919 65.7666C176.63 65.9198 154.931 72.7576 139.753 90.4651C118.46 115.308 108.748 147.012 100.381 162.532C89.8185 160.594 75.0685 161.347 71.1915 176.853C65.9879 197.668 60.8361 219.795 71.243 217.193C76.8546 215.79 91.3272 227.5 98.7927 227.899C106.984 268.873 120.773 321.614 187.588 329.631C279.577 340.669 323.73 303.874 327.407 226.605C328.003 214.088 328.987 203.33 330.074 193.929C332.058 194.73 334.252 195.196 336.679 195.196C354.892 195.196 354.892 182.187 360.095 156.169C363.438 139.452 347.455 138.851 335.595 140.554C334.549 129.355 329.529 120.56 316.368 108.861C294.636 89.5442 244.379 65.4722 199.917 65.7646L199.919 65.7666Z" fill="#f4ccb2" fill-rule="evenodd" opacity="1" stroke="none" vectornator:layerName="path"/>
<path d="M131.671 202.147C131.67 207.362 139.398 212.079 143.76 215.02C143.734 215.316 143.719 215.612 143.714 215.909C143.718 216.749 143.804 217.587 143.97 218.41C141.381 218.088 137.334 215.613 131.659 208.046C131.277 223.039 152.004 228.06 152.004 228.06L152.005 228.018C153.508 228.608 155.109 228.913 156.724 228.917C163.908 228.917 169.732 223.093 169.733 215.909C169.733 208.725 163.908 202.9 156.724 202.9C152.974 202.904 149.409 204.526 146.942 207.35C142.916 207.941 136.667 207.672 131.672 202.147L131.671 202.147Z" fill="#000000" fill-rule="evenodd" opacity="1" stroke="none" vectornator:layerName="path"/>
<g opacity="1" vectornator:layerName="path">
<clipPath clip-rule="evenodd" id="ClipPath_2">
<path d="M199.919 65.7666C176.63 65.9198 154.931 72.7576 139.753 90.4651C118.46 115.308 108.748 147.012 100.381 162.532C89.8185 160.594 75.0685 161.347 71.1915 176.853C65.9879 197.668 60.8361 219.795 71.243 217.193C76.8546 215.79 91.3272 227.5 98.7927 227.899C106.984 268.873 120.773 321.614 187.588 329.631C279.577 340.669 323.73 303.874 327.407 226.605C328.003 214.088 328.987 203.33 330.074 193.929C332.058 194.73 334.252 195.196 336.679 195.196C354.892 195.196 354.892 182.187 360.095 156.169C363.438 139.452 347.455 138.851 335.595 140.554C334.549 129.355 329.529 120.56 316.368 108.861C294.636 89.5442 244.379 65.4722 199.917 65.7646L199.919 65.7666Z"/>
</clipPath>
<g clip-path="url(#ClipPath_2)">
<path d="M311.574 169.05C308.919 169.086 181.748 178.155 181.748 178.155C173.712 172.954 268.696 151.671 268.696 151.671L141.781 168.077L231.233 142.184C231.233 142.184 138.542 159.737 115.484 182.616C100.989 196.996 108.654 213.736 108.654 213.736L100.989 196.996L98.4395 188.566C87.9206 183.872 110.006 254.522 110.006 254.522C110.006 254.522 64.9549 204.736 67.3998 211.415C74.0637 229.617 96.9122 283.462 96.9122 283.462L77.0817 254.223C53.3929 219.296 55.9801 301.998 55.3175 299.196L53.3291 290.789C53.3291 290.789 48.0415 204.807 45.5706 206.874C43.0996 208.938 24.0756 218.407 24.0756 218.407L69.2375 159.887C69.2375 159.887 37.3665 189.006 38.1341 185.88C42.4385 168.34 56.8937 140.516 56.8937 140.516C65.0147 126.165 91.4595 107.804 91.4595 107.804L124.179 91.1605L65.9252 112.506L127.407 70.3648C127.407 70.3648 222.049 40.7887 272.879 80.5495C323.711 120.311 344.321 119.874 348.114 145.906C351.906 171.938 379.733 197.018 379.733 197.018C379.733 197.018 358.611 182.78 359.273 185.582C359.936 188.385 370.584 213.386 370.584 213.386L358.013 207.778L347.197 250.876C347.197 250.876 347.172 214.485 345.216 219.978C343.26 225.471 331.551 294.819 331.551 294.819L328.599 181.002L327.572 162.898L308.576 190.177L311.574 169.05Z" fill="#deb08d" fill-rule="evenodd" opacity="1" stroke="none" vectornator:layerName="path"/>
</g>
</g>
<path d="M291.741 202.147C291.742 207.362 284.014 212.079 279.653 215.02C279.678 215.316 279.693 215.612 279.698 215.909C279.694 216.749 279.609 217.587 279.443 218.41C282.031 218.088 286.078 215.613 291.754 208.046C292.136 223.039 271.409 228.06 271.409 228.06L271.408 228.018C269.904 228.608 268.304 228.913 266.689 228.917C259.505 228.917 253.681 223.093 253.68 215.909C253.68 208.725 259.504 202.9 266.689 202.9C270.438 202.904 274.004 204.526 276.471 207.35C280.497 207.941 286.745 207.672 291.741 202.147L291.741 202.147Z" fill="#000000" fill-rule="evenodd" opacity="1" stroke="none" vectornator:layerName="path"/>
<path d="M310.659 141.748C308.005 141.784 180.834 150.853 180.834 150.853C172.798 145.652 267.781 124.369 267.781 124.369L140.866 140.775L230.318 114.882C230.318 114.882 137.628 132.435 114.569 155.314C100.075 169.694 107.739 186.434 107.739 186.434L100.075 169.694L97.5252 161.264C87.0063 156.571 109.092 227.22 109.092 227.22C109.092 227.22 64.0406 177.434 66.4855 184.113C73.1493 202.316 95.9978 256.16 95.9978 256.16L76.1673 226.921C52.4785 191.994 55.0657 274.696 54.4032 271.894L52.4147 263.487C52.4147 263.487 47.1271 177.506 44.6562 179.573C42.1853 181.637 23.1612 191.105 23.1612 191.105L68.3231 132.585C68.3231 132.585 36.4522 161.704 37.2197 158.578C41.5242 141.038 55.9794 113.214 55.9794 113.214C64.1004 98.863 90.5451 80.5019 90.5451 80.5019L123.265 63.8587L65.0109 85.2037L126.493 43.063C126.493 43.063 221.135 13.4869 271.965 53.2477C322.797 93.0092 343.407 92.5726 347.199 118.605C350.992 144.637 378.819 169.716 378.819 169.716C378.819 169.716 357.696 155.478 358.359 158.28C359.022 161.083 369.67 186.084 369.67 186.084L357.099 180.476L346.283 223.574C346.283 223.574 346.257 187.183 344.301 192.676C342.346 198.169 330.637 267.518 330.637 267.518L327.684 153.7L326.657 135.597L307.661 162.875L310.659 141.748Z" fill="#43a5f8" fill-rule="evenodd" opacity="1" stroke="none" vectornator:layerName="path"/>
<path d="M178.2 184.182L177.215 197.683C177.215 197.683 140.571 181.374 127.354 191.649C114.136 201.924 115.257 202.558 115.257 202.558C115.257 202.558 124.599 161.23 178.2 184.181L178.2 184.182Z" fill="#4d4d4d" fill-rule="evenodd" opacity="1" stroke="none" vectornator:layerName="path"/>
<path d="M248.599 177.614L248.263 191.147C248.263 191.147 286.322 178.49 298.475 190.005C310.627 201.52 309.45 202.043 309.45 202.043C309.45 202.043 304.184 160 248.599 177.613L248.599 177.614Z" fill="#4d4d4d" fill-rule="evenodd" opacity="1" stroke="none" vectornator:layerName="path"/>
<g opacity="1" vectornator:layerName="g">
<path d="M188.404 280.715C189.878 280.374 210.526 262.593 217.308 261.028C224.089 259.463 226.84 263.167 226.84 263.167C226.84 263.167 229.891 253.785 237.654 256.333C245.417 258.881 264.202 260.125 264.202 260.125C269.152 260.76 188.405 280.715 188.405 280.715L188.404 280.715Z" fill="#d9a37b" fill-rule="evenodd" opacity="1" stroke="none" vectornator:layerName="path"/>
<path d="M174.726 283.853C174.726 283.853 243.08 293.501 255.233 275.17C267.385 256.838 266.626 261.662 266.626 261.662" fill="#000000" fill-rule="evenodd" opacity="1" stroke="none" vectornator:layerName="path"/>
<path d="M262.07 266.456L268.905 250.054L270.424 267.421L262.07 266.456Z" fill="#000000" fill-rule="evenodd" opacity="1" stroke="none" vectornator:layerName="path"/>
</g>
<path d="M70.2102 496.324C67.6345 501.475 53.4685 712.678 53.4685 712.678C53.482 712.711 118.516 717.96 110.133 706.238C110.133 706.238 123.011 514.353 117.86 513.065C112.708 511.778 70.2102 496.324 70.2102 496.324Z" fill="#d9a37b" fill-rule="evenodd" opacity="1" stroke="none" vectornator:layerName="path"/>
<path d="M356.106 491.172L374.136 708.814L329.062 708.814L313.608 514.353L356.106 491.172Z" fill="#d9a37b" fill-rule="evenodd" opacity="1" stroke="none" vectornator:layerName="path"/>
<path d="M156.494 323.781C156.494 323.781 103.694 337.948 81.8006 367.567C59.9076 397.187 27.7121 471.881 27.7121 471.881L93.391 523.394C93.391 523.394 75.3615 662.478 72.7858 689.523C70.2102 716.567 71.498 713.991 71.498 713.991L362.545 711.415L327.774 514.379C327.774 514.379 398.604 464.154 392.165 464.154C385.726 464.154 365.121 350.826 305.881 328.933C267.151 314.619 273.686 321.206 273.686 321.206C273.686 321.206 264.686 374.833 215.734 375.294C169.281 375.732 156.494 323.781 156.494 323.781Z" fill="#1a1a1a" fill-rule="evenodd" opacity="1" stroke="none" vectornator:layerName="path"/>
<path d="M168.085 509.202C168.085 482.175 189.994 460.265 217.022 460.265C244.049 460.265 265.959 482.175 265.959 509.202C265.959 536.229 244.049 558.139 217.022 558.139C189.994 558.139 168.085 536.229 168.085 509.202Z" fill="#43a5f8" fill-rule="evenodd" opacity="1" stroke="none" vectornator:layerName="circle"/>
<path d="M224.195 521.533L200.47 515.176L176.745 508.819L194.113 491.451L211.48 474.084L217.837 497.809L224.195 521.533Z" fill="#ffffff" fill-rule="evenodd" opacity="1" stroke="none" vectornator:layerName="path"/>
<path d="M243.512 539.562L230.452 536.063L217.391 532.563L226.952 523.003L236.513 513.442L240.012 526.502L243.512 539.562Z" fill="#ffffff" fill-rule="evenodd" opacity="1" stroke="none" vectornator:layerName="path"/>
<path d="M132.416 146.101C131.773 148.833 130.311 150.903 128.032 152.313C125.753 153.723 123.248 154.106 120.516 153.463C117.364 152.72 114.896 150.906 113.112 148.022L92.3029 114.434C90.2972 111.127 89.7234 107.653 90.5816 104.011C91.4562 100.299 93.4829 97.4492 96.6615 95.4626C99.8404 93.4761 103.286 92.9202 106.998 93.7948C110.687 94.664 113.563 96.7339 115.626 100.005L131.814 126.22C131.992 126.508 132.048 126.793 131.982 127.073C131.894 127.446 131.41 127.905 130.53 128.45C129.651 128.994 129.024 129.222 128.65 129.134C128.347 129.062 128.106 128.882 127.927 128.594L111.713 102.336C110.292 100.103 108.391 98.7067 106.009 98.1456C103.535 97.5625 101.239 97.9457 99.122 99.2952C97.0051 100.645 95.6551 102.557 95.072 105.032C94.4944 107.483 94.8838 109.805 96.2401 111.998L117.005 145.612C118.13 147.429 119.649 148.564 121.564 149.015C123.058 149.367 124.411 149.168 125.622 148.419C126.834 147.669 127.616 146.547 127.968 145.053C128.419 143.138 128.082 141.272 126.958 139.455L111.405 114.314C110.93 113.61 110.296 113.165 109.502 112.978C108.825 112.818 108.212 112.908 107.664 113.247C107.116 113.586 106.762 114.094 106.603 114.772C106.426 115.519 106.556 116.276 106.991 117.044L117.967 134.786C118.145 135.074 118.201 135.358 118.135 135.639C118.047 136.012 117.556 136.475 116.662 137.029C115.768 137.582 115.134 137.815 114.76 137.727C114.48 137.661 114.251 137.483 114.072 137.195L103.097 119.453C101.961 117.683 101.636 115.77 102.12 113.715C102.571 111.801 103.619 110.335 105.263 109.318C106.907 108.301 108.687 108.017 110.601 108.469C112.656 108.953 114.222 110.098 115.299 111.904L130.853 137.046C132.648 139.884 133.169 142.902 132.416 146.1L132.416 146.101Z" fill="#000000" fill-rule="nonzero" opacity="1" stroke="none" vectornator:layerName="path"/>
</g>
</g>
</g>
</svg>
