<?xml version="1.0" encoding="UTF-8" standalone="no"?>
<!DOCTYPE svg PUBLIC "-//W3C//DTD SVG 1.1//EN" "http://www.w3.org/Graphics/SVG/1.1/DTD/svg11.dtd">
<!-- Created with Vectornator (http://vectornator.io/) -->
<svg height="100%" stroke-miterlimit="10" style="fill-rule:nonzero;clip-rule:evenodd;stroke-linecap:round;stroke-linejoin:round;" version="1.1" viewBox="0 0 400 400" width="100%" xml:space="preserve" xmlns="http://www.w3.org/2000/svg" xmlns:vectornator="http://vectornator.io" xmlns:xlink="http://www.w3.org/1999/xlink">
<defs/>
<clipPath id="ArtboardFrame">
<rect height="400" width="400" x="0" y="0"/>
</clipPath>
<g clip-path="url(#ArtboardFrame)" id="Layer-1" vectornator:layerName="Layer 1">
<g opacity="1" vectornator:layerName="rect">
<clipPath clip-rule="evenodd" id="ClipPath">
<path d="M28.329 0L371.671 0L371.671 0L371.671 547.963L371.671 547.963L28.329 547.963L28.329 547.963L28.329 0L28.329 0Z"/>
</clipPath>
<g clip-path="url(#ClipPath)">
<path d="M179.837 222.386C133.074 251.483 50.7339 322.117 56.174 431.262C61.4349 536.828 71.7618 552.847 71.7618 552.847L335.715 549.73C335.715 549.73 388.714 249.405 206.856 227.582C120.188 217.182 179.837 222.386 179.837 222.386Z" fill="#e8c4ac" fill-rule="evenodd" opacity="1" stroke="none" vectornator:layerName="path"/>
<path d="M160.451 228.517C160.451 228.517 187.998 251.379 258.015 227.478C258.015 227.478 275.213 275.846 254.029 274.761C192.046 278.918 160.45 228.517 160.45 228.517L160.451 228.517Z" fill="#cea286" fill-rule="evenodd" opacity="1" stroke="none" vectornator:layerName="path"/>
<path d="M225.863 262.602L221.223 287.365L247.949 272.627L225.863 262.602Z" fill="#999999" fill-rule="evenodd" opacity="1" stroke="none" vectornator:layerName="path"/>
<path d="M320.294 336.972L322.592 549.605L286.304 547.153L301.449 384.65L320.294 336.972Z" fill="#cea286" fill-rule="evenodd" opacity="1" stroke="none" vectornator:layerName="path"/>
<path d="M89.0799 341.128L86.781 553.762L123.07 551.31L107.925 388.807L89.0799 341.128Z" fill="#cea286" fill-rule="evenodd" opacity="1" stroke="none" vectornator:layerName="path"/>
<path d="M160.914 233.765C160.914 233.765 122.439 248.893 100.641 269.097C58.0342 308.586 61.1517 359.506 61.1517 359.506L109.993 394.839C109.993 394.839 107.915 472.778 105.837 494.601C103.758 516.424 122.464 548.638 122.464 548.638C122.464 548.638 265.518 556.933 296.008 547.599C321.299 483.19 298.086 386.525 298.086 386.525C320.001 383.823 347.967 371.977 342.771 371.977C337.575 371.977 352.124 271.176 279.381 249.353C247.467 239.779 255.48 231.687 255.48 231.687C255.48 231.687 248.217 274.96 208.716 275.332C171.232 275.686 160.914 233.765 160.914 233.765Z" fill="#4d4d4d" fill-rule="evenodd" opacity="1" stroke="none" vectornator:layerName="path"/>
<path d="M283.08 241.507C274.767 232.154 265.314 221.862 265.314 221.862L250.394 245.957C246.12 252.859 224.886 263.33 224.886 263.33C224.886 263.33 243.929 270.851 246.252 290.349C276.558 280.136 283.08 241.507 283.08 241.507Z" fill="#ececec" fill-rule="evenodd" opacity="1" stroke="none" vectornator:layerName="path"/>
<path d="M194.095 25.6679C175.302 25.7915 138.046 32.3483 125.8 46.6371C108.617 66.6835 120.525 91.2276 113.774 103.751C105.25 102.187 95.4257 107.991 92.2977 120.504C88.0988 137.299 90.155 130.835 95.4046 144.92C95.4046 144.92 108.546 153.059 114.57 153.381C121.18 186.445 134.385 243.551 188.301 250.02C262.53 258.928 288.857 221.48 295.498 162.069C296.622 152.019 296.967 155.456 299.12 146.754C300.721 147.401 305.701 148.769 307.389 147.776C307.389 147.776 314.989 144.553 319.188 123.559C321.886 110.069 304.832 104.388 295.261 105.763C294.418 96.7258 290.797 51.6625 280.177 42.2215C262.641 26.6337 229.971 25.4319 194.096 25.6683L194.095 25.6679Z" fill="#e8c4ac" fill-rule="evenodd" opacity="1" stroke="none" vectornator:layerName="path"/>
<g opacity="1" vectornator:layerName="path">
<clipPath clip-rule="evenodd" id="ClipPath_2">
<path d="M194.095 25.6679C175.302 25.7915 138.046 32.3483 125.8 46.6371C108.617 66.6835 120.525 91.2276 113.774 103.751C105.25 102.187 95.4257 107.991 92.2977 120.504C88.0988 137.299 90.155 130.835 95.4046 144.92C95.4046 144.92 108.546 153.059 114.57 153.381C121.18 186.445 134.385 243.551 188.301 250.02C262.53 258.928 294.001 217.806 296.968 155.454C297.449 145.354 298.244 136.673 299.121 129.087C300.721 129.734 302.492 130.109 304.451 130.109C319.147 130.109 319.147 119.612 323.346 98.6171C326.044 85.1274 304.833 86.721 295.262 88.0953C294.418 79.0586 290.798 51.6604 280.178 42.2205C262.642 26.6327 229.972 25.4309 194.097 25.6673L194.095 25.6679Z"/>
</clipPath>
<g clip-path="url(#ClipPath_2)">
<path d="M123.503 157.904C123.503 157.904 129.738 202.57 146.365 204.648C162.992 206.726 173.195 175.455 180.469 177.534C187.743 179.612 198.996 188.597 209.388 185.48C219.78 182.362 228.093 173.808 237.446 177.964C246.799 182.121 248.877 209.529 263.426 206.411C277.974 203.294 289.573 159.207 289.573 159.207C289.573 159.207 291.473 210.399 278.015 222.945C270.844 229.63 231.578 256.63 222.227 256.63C212.876 256.63 165.071 245.199 153.64 240.003C142.209 234.807 127.661 211.945 125.582 204.67C123.504 197.396 123.504 157.907 123.504 157.907L123.503 157.904Z" fill="#b89c8a" fill-rule="evenodd" opacity="1" stroke="none" vectornator:layerName="path"/>
</g>
</g>
<path d="M156.513 145.382C156.513 140.659 160.342 136.83 165.065 136.83C169.788 136.83 173.617 140.659 173.617 145.382C173.617 150.105 169.788 153.934 165.065 153.934C160.342 153.934 156.513 150.105 156.513 145.382Z" fill="#000000" fill-rule="evenodd" opacity="1" stroke="none" vectornator:layerName="circle"/>
<path d="M238.521 145.746C238.521 141.023 242.349 137.194 247.073 137.194C251.796 137.194 255.625 141.023 255.625 145.746C255.625 150.469 251.796 154.298 247.073 154.298C242.349 154.298 238.521 150.469 238.521 145.746Z" fill="#000000" fill-rule="evenodd" opacity="1" stroke="none" vectornator:layerName="circle"/>
<path d="M188.114 274.605L210.894 550.182L167.539 550.162L188.114 274.605Z" fill="#2e2e2e" fill-rule="evenodd" opacity="1" stroke="none" vectornator:layerName="path"/>
<path d="M134.934 245.196C130.777 246.235 118.307 246.235 107.915 256.627C97.5233 267.019 91.2881 275.332 91.2881 275.332L107.915 351.193C107.915 351.193 92.3273 370.938 104.798 382.369C117.268 393.8 94.4057 411.466 104.798 424.975C115.189 438.485 84.0138 443.681 98.5624 462.386C113.111 481.091 85.053 485.248 94.4057 502.914C103.758 520.58 81.9355 530.972 97.5233 543.442C113.111 555.913 190.011 550.717 190.011 550.717L187.932 270.136L177.541 242.078L140.13 221.295C140.13 221.295 127.66 227.53 130.777 233.765C133.895 240 134.934 245.196 134.934 245.196Z" fill="#43a5f8" fill-rule="evenodd" opacity="1" stroke="none" vectornator:layerName="path"/>
<path d="M279.9 248.833C279.9 248.833 291.851 247.274 302.243 257.666C312.635 268.058 318.87 276.372 318.87 276.372L302.243 352.232C302.243 352.232 317.831 371.977 305.361 383.408C292.89 394.839 315.752 412.505 305.361 426.014C294.969 439.524 326.144 444.72 311.596 463.425C297.047 482.13 325.105 486.287 315.752 503.953C306.4 521.62 328.223 532.011 312.635 544.482C297.047 556.952 220.147 551.756 220.147 551.756L222.226 271.176L232.617 243.118L270.028 222.334C270.028 222.334 285.417 229.13 283.538 235.843L279.9 248.833Z" fill="#43a5f8" fill-rule="evenodd" opacity="1" stroke="none" vectornator:layerName="path"/>
<path d="M107.915 350.133L159.874 358.446C159.874 358.446 111.033 345.976 103.758 326.232C96.4841 306.487 99.082 266.479 99.082 266.479L89.7294 275.312L107.915 350.133Z" fill="#0976d3" fill-rule="evenodd" opacity="1" stroke="none" vectornator:layerName="path"/>
<path d="M99.6016 372.476C107.915 396.896 157.557 397.111 157.557 397.111C125.625 398.891 107.913 396.896 107.913 396.896L99.5996 372.475L99.6016 372.476Z" fill="#0976d3" fill-rule="evenodd" opacity="1" stroke="none" vectornator:layerName="path"/>
<path d="M101.68 418.719L155.645 432.303C155.645 432.303 114.151 435.346 108.955 432.229C103.759 429.111 101.681 418.719 101.681 418.719L101.68 418.719Z" fill="#0976d3" fill-rule="evenodd" opacity="1" stroke="none" vectornator:layerName="path"/>
<path d="M94.1511 456.561L149.228 475.214C149.228 475.214 107.052 475.875 102.895 471.718C98.7381 467.562 94.1511 456.561 94.1511 456.561L94.1511 456.561Z" fill="#0976d3" fill-rule="evenodd" opacity="1" stroke="none" vectornator:layerName="path"/>
<path d="M92.2026 495.926C92.2026 495.926 111.778 509.504 139.827 517.518C160.841 523.522 97.0941 513.287 97.0941 513.287L92.2026 495.926Z" fill="#0976d3" fill-rule="evenodd" opacity="1" stroke="none" vectornator:layerName="path"/>
<path d="M244.568 257.251C244.568 257.251 225.343 270.286 224.304 284.828C222.712 307.107 225.343 332.455 225.343 332.455C225.343 332.455 226.902 307.027 249.244 280.127C274.117 250.178 280.94 247.756 280.94 247.756L280.42 246.204L244.568 257.251Z" fill="#0976d3" fill-rule="evenodd" opacity="1" stroke="none" vectornator:layerName="path"/>
<path d="M132.856 244.157C136.812 246.235 157.582 253.509 167.473 283.646C177.363 313.782 184.438 332.488 184.438 332.488C184.438 332.488 188.244 277.411 180.331 265.98C172.419 254.549 132.856 244.157 132.856 244.157L132.856 244.157Z" fill="#0976d3" fill-rule="evenodd" opacity="1" stroke="none" vectornator:layerName="path"/>
<path d="M318.87 275.852C318.87 275.852 290.474 357.298 266.911 364.702L307.958 358.467L313.414 317.16L318.87 275.852Z" fill="#0976d3" fill-rule="evenodd" opacity="1" stroke="none" vectornator:layerName="path"/>
<path d="M309.517 378.711C309.517 378.711 278.342 397.936 260.675 400.014C243.009 402.092 299.125 396.896 299.125 396.896L309.517 378.711Z" fill="#0976d3" fill-rule="evenodd" opacity="1" stroke="none" vectornator:layerName="path"/>
<path d="M308.478 417.68L263.793 441.581C249.017 449.484 305.487 438.464 305.487 438.464L308.478 417.68Z" fill="#0976d3" fill-rule="evenodd" opacity="1" stroke="none" vectornator:layerName="path"/>
<path d="M307.439 468.6C303.282 469.639 276.285 476.662 260.675 480.031C257.463 480.725 309.517 483.149 309.517 483.149L307.439 468.6Z" fill="#0976d3" fill-rule="evenodd" opacity="1" stroke="none" vectornator:layerName="path"/>
<path d="M315.752 502.893C315.752 502.893 300.165 517.442 280.42 516.403C260.675 515.364 313.674 520.56 313.674 520.56L315.752 502.893Z" fill="#0976d3" fill-rule="evenodd" opacity="1" stroke="none" vectornator:layerName="path"/>
<path d="M253.243 334.187C253.243 326.681 259.327 320.597 266.833 320.597C274.338 320.597 280.422 326.681 280.422 334.187C280.422 341.692 274.338 347.776 266.833 347.776C259.327 347.776 253.243 341.692 253.243 334.187Z" fill="#0976d3" fill-rule="evenodd" opacity="1" stroke="none" vectornator:layerName="circle"/>
<g opacity="1" vectornator:layerName="g">
<path d="M267.347 335.994L262.588 334.763L257.829 333.531L261.313 330.167L264.796 326.803L266.071 331.398L267.347 335.994Z" fill="#ffffff" fill-rule="evenodd" opacity="1" stroke="none" vectornator:layerName="path"/>
<path d="M272.173 342.019L268.34 340.992L264.507 339.965L267.313 337.159L270.119 334.354L271.146 338.186L272.173 342.019Z" fill="#ffffff" fill-rule="evenodd" opacity="1" stroke="none" vectornator:layerName="path"/>
<path d="M274.834 333.275L270.881 332.215L266.928 331.156L269.822 328.262L272.715 325.368L273.775 329.321L274.834 333.275Z" fill="#ffffff" fill-rule="evenodd" opacity="1" stroke="none" vectornator:layerName="path"/>
</g>
<path d="M183.033 121.533L187.316 128.155C187.316 128.155 176.009 128.305 162.71 126.259C149.411 124.213 135.937 128.895 135.937 128.895C126.882 127.19 152.761 112.966 167.99 116.884C183.22 120.801 183.032 121.533 183.032 121.533L183.033 121.533Z" fill="#5a524d" fill-rule="evenodd" opacity="1" stroke="none" vectornator:layerName="path"/>
<path d="M140.692 132.081L181.135 132.081C184.22 132.081 186.721 134.582 186.721 137.667L186.721 154.208C186.721 157.294 184.22 159.795 181.135 159.795L140.692 159.795C137.606 159.795 135.105 157.294 135.105 154.208L135.105 137.667C135.105 134.582 137.606 132.081 140.692 132.081Z" fill="none" opacity="1" stroke="#1a1a1a" stroke-linecap="round" stroke-linejoin="miter" stroke-width="4.60484" vectornator:layerName="rect"/>
<path d="M225.88 130.989L264.294 130.989C267.389 130.989 269.897 133.498 269.897 136.592L269.897 153.184C269.897 156.278 267.389 158.787 264.294 158.787L225.88 158.787C222.786 158.787 220.277 156.278 220.277 153.184L220.277 136.592C220.277 133.498 222.786 130.989 225.88 130.989Z" fill="none" opacity="1" stroke="#1a1a1a" stroke-linecap="round" stroke-linejoin="miter" stroke-width="4.52171" vectornator:layerName="rect"/>
<path d="M187.273 135.406L219.767 135.406L219.767 135.406L219.767 139.842L219.767 139.842L187.273 139.842L187.273 139.842L187.273 135.406L187.273 135.406Z" fill="#000000" fill-rule="evenodd" opacity="1" stroke="none" vectornator:layerName="rect"/>
<g opacity="1" vectornator:layerName="path">
<clipPath clip-rule="evenodd" id="ClipPath_3">
<path d="M193.056 25.6679C174.262 25.7915 137.007 32.3483 124.76 46.6371C107.578 66.6835 119.485 91.2276 112.734 103.751C104.211 102.187 94.3865 107.991 91.2585 120.504C87.0596 137.299 89.1158 130.835 94.3654 144.92C94.3654 144.92 107.506 153.059 113.531 153.381C120.141 186.445 133.346 243.551 187.261 250.02C261.49 258.928 292.962 217.806 295.929 155.454C296.41 145.354 297.204 136.673 298.082 129.087C299.682 129.734 301.453 130.109 303.412 130.109C318.108 130.109 318.108 119.612 322.307 98.6171C325.004 85.1274 303.793 86.721 294.223 88.0953C293.379 79.0586 289.759 51.6604 279.139 42.2205C261.603 26.6327 228.933 25.4309 193.058 25.6673L193.056 25.6679Z"/>
</clipPath>
<g clip-path="url(#ClipPath_3)">
<path d="M118.307 154.787C118.307 154.787 131.386 96.2858 124.112 76.5413C116.491 55.8563 101.417 22.0619 166.11 38.3959C187.293 43.7435 204.559 51.9053 204.559 51.9053C236.587 35.7018 272.065 33.5959 282.498 46.7093C300.684 69.5714 271.781 120.502 291.851 150.883C296.975 158.637 296.008 88.2768 296.008 88.2768C296.008 88.2768 309.517 47.7485 286.655 32.1607C263.793 16.5729 180.658-7.32834 156.757 4.10271C132.856 15.5338 109.081 44.5047 107.002 51.779C104.924 59.0533 118.307 154.783 118.307 154.783L118.307 154.787Z" fill="#b89c8a" fill-rule="evenodd" opacity="1" stroke="none" vectornator:layerName="path"/>
</g>
</g>
<path d="M265.871 131.925L297.047 102.827L297.047 109.063L270.028 138.16L265.871 131.925Z" fill="#000000" fill-rule="evenodd" opacity="1" stroke="none" vectornator:layerName="path"/>
<path d="M169.227 195.315C169.227 195.315 229.567 209.458 231.578 197.393L229.248 191.169L241.896 201.55L232.428 200.448C232.428 200.448 198.324 226.49 169.225 195.315L169.227 195.315Z" fill="#000000" fill-rule="evenodd" opacity="1" stroke="none" vectornator:layerName="path"/>
<path d="M170.562 195.211C170.562 195.211 178.826 197.922 190.238 196.934C201.99 195.916 199.571 203.946 207.999 200.084C214.862 196.94 216.46 199.356 222.222 200.323C227.984 201.289 230.732 198.915 230.732 198.915C223.261 206.038 181.016 204.914 170.564 195.211L170.562 195.211Z" fill="#e4b89b" fill-rule="evenodd" opacity="1" stroke="none" vectornator:layerName="path"/>
<path d="M222.257 116.337L217.973 122.959C217.973 122.959 229.28 123.109 242.579 121.063C255.878 119.017 269.352 123.699 269.352 123.699C278.407 121.994 252.528 107.77 237.299 111.688C222.07 115.605 222.257 116.337 222.257 116.337L222.257 116.337Z" fill="#5a524d" fill-rule="evenodd" opacity="1" stroke="none" vectornator:layerName="path"/>
<path d="M138.571 132.184L114.67 99.7099L112.072 103.607L134.414 138.42L138.571 132.184Z" fill="#000000" fill-rule="evenodd" opacity="1" stroke="none" vectornator:layerName="path"/>
</g>
</g>
</g>
</svg>
